<mxfile host="app.diagrams.net" modified="2023-09-29T12:08:13.155Z" agent="Mozilla/5.0 (Windows NT 10.0; Win64; x64) AppleWebKit/537.36 (KHTML, like Gecko) Chrome/117.0.0.0 Safari/537.36" version="22.0.0" etag="sRFajaS23eT07ds5IIA5" type="github">
  <diagram name="PÃ¡gina-1" id="VZA45IiU9R14qPv2II5P">
    <mxGraphModel>
      <root>
        <mxCell id="0" />
        <mxCell id="1" parent="0" />
      </root>
    </mxGraphModel>
  </diagram>
</mxfile>
